<svg width="714" height="72" viewBox="0 0 714 72" fill="none" xmlns="http://www.w3.org/2000/svg">
<mask id="path-1-outside-1_31_6" maskUnits="userSpaceOnUse" x="-1" y="-1" width="716" height="75" fill="black">
<rect fill="white" x="-1" y="-1" width="716" height="75"/>
<path d="M2.98023e-08 72V14.1H7V44.3H47.4V14.1H54.4V72H47.4V50.4H7V72H2.98023e-08ZM7 14.1V8.09999H14V14.1H7ZM14 8.09999V2H40.4V8.09999H14ZM40.4 14.1V8.09999H47.4V14.1H40.4ZM116.559 72V55.2H109.659V49.1H116.559V2H123.559V72H116.559ZM68.3594 72V2H75.3594V18.8H82.2594V24.9H75.3594V72H68.3594ZM82.2594 30.9V24.9H89.0594V30.9H82.2594ZM89.0594 37V30.9H95.9594V37H89.0594ZM95.9594 43.1V37H102.859V43.1H95.9594ZM102.859 49.1V43.1H109.659V49.1H102.859ZM156.598 72V7.8L132.498 15.1V8.49999L160.198 0.599995L187.898 8.49999V15.1L163.698 7.8V72H156.598ZM198.556 72V2H205.556V72H198.556ZM221.31 72V2H238.21L252.51 65.9H256.91L271.21 2H288.11V72H281.11V8.09999H276.61L262.21 72H247.21L232.81 8.09999H228.31V72H221.31ZM298.627 72L316.927 2H339.927L358.227 72H350.927L345.427 50.4H311.427L305.927 72H298.627ZM313.027 44.3H343.827L334.627 8.09999H322.227L313.027 44.3ZM381.891 72V7.8L357.791 15.1V8.49999L385.491 0.599995L413.191 8.49999V15.1L388.991 7.8V72H381.891ZM443.023 72V7.8L418.923 15.1V8.49999L446.623 0.599995L474.323 8.49999V15.1L450.123 7.8V72H443.023ZM482.303 36.7H531.303V42.8H482.303V36.7ZM482.303 49.5V42.8L531.303 65.2V72L482.303 49.5ZM482.303 14.8V8.09999L531.303 29.9V36.7L482.303 14.8ZM482.303 8.09999V2H531.303V8.09999H482.303ZM545.334 72V2H577.834C589.434 2 598.734 11.4 598.734 22.9C598.734 34.4 589.434 43.8 577.834 43.8H552.334L596.034 64.4V72L552.334 50.5V72H545.334ZM552.334 37.7H577.834C585.534 37.7 591.734 31.1 591.734 22.9C591.734 14.7 585.534 8.09999 577.834 8.09999H552.334V37.7ZM637.793 72V14.1H644.793V44.3H685.193V14.1H692.193V72H685.193V50.4H644.793V72H637.793ZM644.793 14.1V8.09999H651.793V14.1H644.793ZM651.793 8.09999V2H678.193V8.09999H651.793ZM678.193 14.1V8.09999H685.193V14.1H678.193ZM706.152 72V2H713.152V72H706.152Z"/>
</mask>
<path d="M2.98023e-08 72V14.1H7V44.3H47.4V14.1H54.4V72H47.4V50.4H7V72H2.98023e-08ZM7 14.1V8.09999H14V14.1H7ZM14 8.09999V2H40.4V8.09999H14ZM40.4 14.1V8.09999H47.4V14.1H40.4ZM116.559 72V55.2H109.659V49.1H116.559V2H123.559V72H116.559ZM68.3594 72V2H75.3594V18.8H82.2594V24.9H75.3594V72H68.3594ZM82.2594 30.9V24.9H89.0594V30.9H82.2594ZM89.0594 37V30.9H95.9594V37H89.0594ZM95.9594 43.1V37H102.859V43.1H95.9594ZM102.859 49.1V43.1H109.659V49.1H102.859ZM156.598 72V7.8L132.498 15.1V8.49999L160.198 0.599995L187.898 8.49999V15.1L163.698 7.8V72H156.598ZM198.556 72V2H205.556V72H198.556ZM221.31 72V2H238.21L252.51 65.9H256.91L271.21 2H288.11V72H281.11V8.09999H276.61L262.21 72H247.21L232.81 8.09999H228.31V72H221.31ZM298.627 72L316.927 2H339.927L358.227 72H350.927L345.427 50.4H311.427L305.927 72H298.627ZM313.027 44.3H343.827L334.627 8.09999H322.227L313.027 44.3ZM381.891 72V7.8L357.791 15.1V8.49999L385.491 0.599995L413.191 8.49999V15.1L388.991 7.8V72H381.891ZM443.023 72V7.8L418.923 15.1V8.49999L446.623 0.599995L474.323 8.49999V15.1L450.123 7.8V72H443.023ZM482.303 36.7H531.303V42.8H482.303V36.7ZM482.303 49.5V42.8L531.303 65.2V72L482.303 49.5ZM482.303 14.8V8.09999L531.303 29.9V36.7L482.303 14.8ZM482.303 8.09999V2H531.303V8.09999H482.303ZM545.334 72V2H577.834C589.434 2 598.734 11.4 598.734 22.9C598.734 34.4 589.434 43.8 577.834 43.8H552.334L596.034 64.4V72L552.334 50.5V72H545.334ZM552.334 37.7H577.834C585.534 37.7 591.734 31.1 591.734 22.9C591.734 14.7 585.534 8.09999 577.834 8.09999H552.334V37.7ZM637.793 72V14.1H644.793V44.3H685.193V14.1H692.193V72H685.193V50.4H644.793V72H637.793ZM644.793 14.1V8.09999H651.793V14.1H644.793ZM651.793 8.09999V2H678.193V8.09999H651.793ZM678.193 14.1V8.09999H685.193V14.1H678.193ZM706.152 72V2H713.152V72H706.152Z" fill="white"/>
<path d="M0 72H-1V73H0V72ZM0 14.1V13.1H-1V14.1H0ZM7 14.1H8V13.1H7V14.1ZM7 44.3H6V45.3H7V44.3ZM47.4 44.3V45.3H48.4V44.3H47.4ZM47.4 14.1V13.1H46.4V14.1H47.4ZM54.4 14.1H55.4V13.1H54.4V14.1ZM54.4 72V73H55.4V72H54.4ZM47.4 72H46.4V73H47.4V72ZM47.4 50.4H48.4V49.4H47.4V50.4ZM7 50.4V49.4H6V50.4H7ZM7 72V73H8V72H7ZM7 14.1H6V15.1H7V14.1ZM7 8.09999V7.09999H6V8.09999H7ZM14 8.09999H15V7.09999H14V8.09999ZM14 14.1V15.1H15V14.1H14ZM14 8.09999H13V9.09999H14V8.09999ZM14 2V0.999996H13V2H14ZM40.4 2H41.4V0.999996H40.4V2ZM40.4 8.09999V9.09999H41.4V8.09999H40.4ZM40.4 14.1H39.4V15.1H40.4V14.1ZM40.4 8.09999V7.09999H39.4V8.09999H40.4ZM47.4 8.09999H48.4V7.09999H47.4V8.09999ZM47.4 14.1V15.1H48.4V14.1H47.4ZM1 72V14.1H-1V72H1ZM0 15.1H7V13.1H0V15.1ZM6 14.1V44.3H8V14.1H6ZM7 45.3H47.4V43.3H7V45.3ZM48.4 44.3V14.1H46.4V44.3H48.4ZM47.4 15.1H54.4V13.1H47.4V15.1ZM53.4 14.1V72H55.4V14.1H53.4ZM54.4 71H47.4V73H54.4V71ZM48.4 72V50.4H46.4V72H48.4ZM47.4 49.4H7V51.4H47.4V49.4ZM6 50.4V72H8V50.4H6ZM7 71H0V73H7V71ZM8 14.1V8.09999H6V14.1H8ZM7 9.09999H14V7.09999H7V9.09999ZM13 8.09999V14.1H15V8.09999H13ZM14 13.1H7V15.1H14V13.1ZM15 8.09999V2H13V8.09999H15ZM14 3H40.4V0.999996H14V3ZM39.4 2V8.09999H41.4V2H39.4ZM40.4 7.09999H14V9.09999H40.4V7.09999ZM41.4 14.1V8.09999H39.4V14.1H41.4ZM40.4 9.09999H47.4V7.09999H40.4V9.09999ZM46.4 8.09999V14.1H48.4V8.09999H46.4ZM47.4 13.1H40.4V15.1H47.4V13.1ZM116.559 72H115.559V73H116.559V72ZM116.559 55.2H117.559V54.2H116.559V55.2ZM109.659 55.2H108.659V56.2H109.659V55.2ZM109.659 49.1V48.1H108.659V49.1H109.659ZM116.559 49.1V50.1H117.559V49.1H116.559ZM116.559 2V0.999996H115.559V2H116.559ZM123.559 2H124.559V0.999996H123.559V2ZM123.559 72V73H124.559V72H123.559ZM68.3594 72H67.3594V73H68.3594V72ZM68.3594 2V0.999996H67.3594V2H68.3594ZM75.3594 2H76.3594V0.999996H75.3594V2ZM75.3594 18.8H74.3594V19.8H75.3594V18.8ZM82.2594 18.8H83.2594V17.8H82.2594V18.8ZM82.2594 24.9V25.9H83.2594V24.9H82.2594ZM75.3594 24.9V23.9H74.3594V24.9H75.3594ZM75.3594 72V73H76.3594V72H75.3594ZM82.2594 30.9H81.2594V31.9H82.2594V30.9ZM82.2594 24.9V23.9H81.2594V24.9H82.2594ZM89.0594 24.9H90.0594V23.9H89.0594V24.9ZM89.0594 30.9V31.9H90.0594V30.9H89.0594ZM89.0594 37H88.0594V38H89.0594V37ZM89.0594 30.9V29.9H88.0594V30.9H89.0594ZM95.9594 30.9H96.9594V29.9H95.9594V30.9ZM95.9594 37V38H96.9594V37H95.9594ZM95.9594 43.1H94.9594V44.1H95.9594V43.1ZM95.9594 37V36H94.9594V37H95.9594ZM102.859 37H103.859V36H102.859V37ZM102.859 43.1V44.1H103.859V43.1H102.859ZM102.859 49.1H101.859V50.1H102.859V49.1ZM102.859 43.1V42.1H101.859V43.1H102.859ZM109.659 43.1H110.659V42.1H109.659V43.1ZM109.659 49.1V50.1H110.659V49.1H109.659ZM117.559 72V55.2H115.559V72H117.559ZM116.559 54.2H109.659V56.2H116.559V54.2ZM110.659 55.2V49.1H108.659V55.2H110.659ZM109.659 50.1H116.559V48.1H109.659V50.1ZM117.559 49.1V2H115.559V49.1H117.559ZM116.559 3H123.559V0.999996H116.559V3ZM122.559 2V72H124.559V2H122.559ZM123.559 71H116.559V73H123.559V71ZM69.3594 72V2H67.3594V72H69.3594ZM68.3594 3H75.3594V0.999996H68.3594V3ZM74.3594 2V18.8H76.3594V2H74.3594ZM75.3594 19.8H82.2594V17.8H75.3594V19.8ZM81.2594 18.8V24.9H83.2594V18.8H81.2594ZM82.2594 23.9H75.3594V25.9H82.2594V23.9ZM74.3594 24.9V72H76.3594V24.9H74.3594ZM75.3594 71H68.3594V73H75.3594V71ZM83.2594 30.9V24.9H81.2594V30.9H83.2594ZM82.2594 25.9H89.0594V23.9H82.2594V25.9ZM88.0594 24.9V30.9H90.0594V24.9H88.0594ZM89.0594 29.9H82.2594V31.9H89.0594V29.9ZM90.0594 37V30.9H88.0594V37H90.0594ZM89.0594 31.9H95.9594V29.9H89.0594V31.9ZM94.9594 30.9V37H96.9594V30.9H94.9594ZM95.9594 36H89.0594V38H95.9594V36ZM96.9594 43.1V37H94.9594V43.1H96.9594ZM95.9594 38H102.859V36H95.9594V38ZM101.859 37V43.1H103.859V37H101.859ZM102.859 42.1H95.9594V44.1H102.859V42.1ZM103.859 49.1V43.1H101.859V49.1H103.859ZM102.859 44.1H109.659V42.1H102.859V44.1ZM108.659 43.1V49.1H110.659V43.1H108.659ZM109.659 48.1H102.859V50.1H109.659V48.1ZM156.598 72H155.598V73H156.598V72ZM156.598 7.8H157.598V6.45222L156.308 6.84294L156.598 7.8ZM132.498 15.1H131.498V16.4478L132.788 16.0571L132.498 15.1ZM132.498 8.5L132.223 7.53834L131.498 7.74532V8.5H132.498ZM160.198 0.599995L160.472 -0.36166L160.198 -0.43988L159.923 -0.36166L160.198 0.599995ZM187.898 8.5H188.898V7.74532L188.172 7.53834L187.898 8.5ZM187.898 15.1L187.609 16.0574L188.898 16.4462V15.1H187.898ZM163.698 7.8L163.986 6.84261L162.698 6.45384V7.8H163.698ZM163.698 72V73H164.698V72H163.698ZM157.598 72V7.8H155.598V72H157.598ZM156.308 6.84294L132.208 14.1429L132.788 16.0571L156.888 8.75706L156.308 6.84294ZM133.498 15.1V8.5H131.498V15.1H133.498ZM132.772 9.46165L160.472 1.56165L159.923 -0.36166L132.223 7.53834L132.772 9.46165ZM159.923 1.56165L187.623 9.46165L188.172 7.53834L160.472 -0.36166L159.923 1.56165ZM186.898 8.5V15.1H188.898V8.5H186.898ZM188.186 14.1426L163.986 6.84261L163.409 8.75739L187.609 16.0574L188.186 14.1426ZM162.698 7.8V72H164.698V7.8H162.698ZM163.698 71H156.598V73H163.698V71ZM198.556 72H197.556V73H198.556V72ZM198.556 2V0.999996H197.556V2H198.556ZM205.556 2H206.556V0.999996H205.556V2ZM205.556 72V73H206.556V72H205.556ZM199.556 72V2H197.556V72H199.556ZM198.556 3H205.556V0.999996H198.556V3ZM204.556 2V72H206.556V2H204.556ZM205.556 71H198.556V73H205.556V71ZM221.31 72H220.31V73H221.31V72ZM221.31 2V0.999996H220.31V2H221.31ZM238.21 2L239.186 1.78161L239.011 0.999996H238.21V2ZM252.51 65.9L251.534 66.1184L251.709 66.9H252.51V65.9ZM256.91 65.9V66.9H257.711L257.886 66.1184L256.91 65.9ZM271.21 2V0.999996H270.409L270.234 1.78161L271.21 2ZM288.11 2H289.11V0.999996H288.11V2ZM288.11 72V73H289.11V72H288.11ZM281.11 72H280.11V73H281.11V72ZM281.11 8.09999H282.11V7.09999H281.11V8.09999ZM276.61 8.09999V7.09999H275.81L275.635 7.88015L276.61 8.09999ZM262.21 72V73H263.01L263.186 72.2198L262.21 72ZM247.21 72L246.235 72.2198L246.41 73H247.21V72ZM232.81 8.09999L233.786 7.88015L233.61 7.09999H232.81V8.09999ZM228.31 8.09999V7.09999H227.31V8.09999H228.31ZM228.31 72V73H229.31V72H228.31ZM222.31 72V2H220.31V72H222.31ZM221.31 3H238.21V0.999996H221.31V3ZM237.234 2.21838L251.534 66.1184L253.486 65.6816L239.186 1.78161L237.234 2.21838ZM252.51 66.9H256.91V64.9H252.51V66.9ZM257.886 66.1184L272.186 2.21838L270.234 1.78161L255.934 65.6816L257.886 66.1184ZM271.21 3H288.11V0.999996H271.21V3ZM287.11 2V72H289.11V2H287.11ZM288.11 71H281.11V73H288.11V71ZM282.11 72V8.09999H280.11V72H282.11ZM281.11 7.09999H276.61V9.09999H281.11V7.09999ZM275.635 7.88015L261.235 71.7802L263.186 72.2198L277.586 8.31983L275.635 7.88015ZM262.21 71H247.21V73H262.21V71ZM248.186 71.7802L233.786 7.88015L231.835 8.31983L246.235 72.2198L248.186 71.7802ZM232.81 7.09999H228.31V9.09999H232.81V7.09999ZM227.31 8.09999V72H229.31V8.09999H227.31ZM228.31 71H221.31V73H228.31V71ZM298.627 72L297.66 71.7471L297.332 73H298.627V72ZM316.927 2V0.999996H316.155L315.96 1.74707L316.927 2ZM339.927 2L340.895 1.74707L340.7 0.999996H339.927V2ZM358.227 72V73H359.522L359.195 71.7471L358.227 72ZM350.927 72L349.958 72.2468L350.15 73H350.927V72ZM345.427 50.4L346.396 50.1532L346.205 49.4H345.427V50.4ZM311.427 50.4V49.4H310.65L310.458 50.1532L311.427 50.4ZM305.927 72V73H306.705L306.896 72.2468L305.927 72ZM313.027 44.3L312.058 44.0537L311.741 45.3H313.027V44.3ZM343.827 44.3V45.3H345.113L344.797 44.0537L343.827 44.3ZM334.627 8.09999L335.597 7.85368L335.405 7.09999H334.627V8.09999ZM322.227 8.09999V7.09999H321.45L321.258 7.85368L322.227 8.09999ZM299.595 72.2529L317.895 2.25292L315.96 1.74707L297.66 71.7471L299.595 72.2529ZM316.927 3H339.927V0.999996H316.927V3ZM338.96 2.25292L357.26 72.2529L359.195 71.7471L340.895 1.74707L338.96 2.25292ZM358.227 71H350.927V73H358.227V71ZM351.896 71.7532L346.396 50.1532L344.458 50.6468L349.958 72.2468L351.896 71.7532ZM345.427 49.4H311.427V51.4H345.427V49.4ZM310.458 50.1532L304.958 71.7532L306.896 72.2468L312.396 50.6468L310.458 50.1532ZM305.927 71H298.627V73H305.927V71ZM313.027 45.3H343.827V43.3H313.027V45.3ZM344.797 44.0537L335.597 7.85368L333.658 8.34631L342.858 44.5463L344.797 44.0537ZM334.627 7.09999H322.227V9.09999H334.627V7.09999ZM321.258 7.85368L312.058 44.0537L313.997 44.5463L323.197 8.34631L321.258 7.85368ZM381.891 72H380.891V73H381.891V72ZM381.891 7.8H382.891V6.45222L381.601 6.84294L381.891 7.8ZM357.791 15.1H356.791V16.4478L358.081 16.0571L357.791 15.1ZM357.791 8.5L357.516 7.53834L356.791 7.74532V8.5H357.791ZM385.491 0.599995L385.765 -0.36166L385.491 -0.43988L385.216 -0.36166L385.491 0.599995ZM413.191 8.5H414.191V7.74532L413.465 7.53834L413.191 8.5ZM413.191 15.1L412.902 16.0574L414.191 16.4462V15.1H413.191ZM388.991 7.8L389.279 6.84261L387.991 6.45384V7.8H388.991ZM388.991 72V73H389.991V72H388.991ZM382.891 72V7.8H380.891V72H382.891ZM381.601 6.84294L357.501 14.1429L358.081 16.0571L382.181 8.75706L381.601 6.84294ZM358.791 15.1V8.5H356.791V15.1H358.791ZM358.065 9.46165L385.765 1.56165L385.216 -0.36166L357.516 7.53834L358.065 9.46165ZM385.216 1.56165L412.916 9.46165L413.465 7.53834L385.765 -0.36166L385.216 1.56165ZM412.191 8.5V15.1H414.191V8.5H412.191ZM413.479 14.1426L389.279 6.84261L388.702 8.75739L412.902 16.0574L413.479 14.1426ZM387.991 7.8V72H389.991V7.8H387.991ZM388.991 71H381.891V73H388.991V71ZM443.023 72H442.023V73H443.023V72ZM443.023 7.8H444.023V6.45222L442.734 6.84294L443.023 7.8ZM418.923 15.1H417.923V16.4478L419.213 16.0571L418.923 15.1ZM418.923 8.5L418.649 7.53834L417.923 7.74532V8.5H418.923ZM446.623 0.599995L446.898 -0.36166L446.623 -0.43988L446.349 -0.36166L446.623 0.599995ZM474.323 8.5H475.323V7.74532L474.598 7.53834L474.323 8.5ZM474.323 15.1L474.035 16.0574L475.323 16.4462V15.1H474.323ZM450.123 7.8L450.412 6.84261L449.123 6.45384V7.8H450.123ZM450.123 72V73H451.123V72H450.123ZM444.023 72V7.8H442.023V72H444.023ZM442.734 6.84294L418.634 14.1429L419.213 16.0571L443.313 8.75706L442.734 6.84294ZM419.923 15.1V8.5H417.923V15.1H419.923ZM419.198 9.46165L446.898 1.56165L446.349 -0.36166L418.649 7.53834L419.198 9.46165ZM446.349 1.56165L474.049 9.46165L474.598 7.53834L446.898 -0.36166L446.349 1.56165ZM473.323 8.5V15.1H475.323V8.5H473.323ZM474.612 14.1426L450.412 6.84261L449.835 8.75739L474.035 16.0574L474.612 14.1426ZM449.123 7.8V72H451.123V7.8H449.123ZM450.123 71H443.023V73H450.123V71ZM482.303 36.7V35.7H481.303V36.7H482.303ZM531.303 36.7H532.303V35.7H531.303V36.7ZM531.303 42.8V43.8H532.303V42.8H531.303ZM482.303 42.8H481.303V43.8H482.303V42.8ZM482.303 49.5H481.303V50.1412L481.886 50.4088L482.303 49.5ZM482.303 42.8L482.719 41.8905L481.303 41.2433V42.8H482.303ZM531.303 65.2H532.303V64.5576L531.719 64.2905L531.303 65.2ZM531.303 72L530.886 72.9088L532.303 73.5596V72H531.303ZM482.303 14.8H481.303V15.4484L481.895 15.713L482.303 14.8ZM482.303 8.09999L482.71 7.18634L481.303 6.56059V8.09999H482.303ZM531.303 29.9H532.303V29.2504L531.71 28.9863L531.303 29.9ZM531.303 36.7L530.895 37.613L532.303 38.2423V36.7H531.303ZM482.303 8.09999H481.303V9.09999H482.303V8.09999ZM482.303 2V0.999996H481.303V2H482.303ZM531.303 2H532.303V0.999996H531.303V2ZM531.303 8.09999V9.09999H532.303V8.09999H531.303ZM482.303 37.7H531.303V35.7H482.303V37.7ZM530.303 36.7V42.8H532.303V36.7H530.303ZM531.303 41.8H482.303V43.8H531.303V41.8ZM483.303 42.8V36.7H481.303V42.8H483.303ZM483.303 49.5V42.8H481.303V49.5H483.303ZM481.887 43.7095L530.887 66.1095L531.719 64.2905L482.719 41.8905L481.887 43.7095ZM530.303 65.2V72H532.303V65.2H530.303ZM531.72 71.0912L482.72 48.5912L481.886 50.4088L530.886 72.9088L531.72 71.0912ZM483.303 14.8V8.09999H481.303V14.8H483.303ZM481.897 9.01365L530.897 30.8137L531.71 28.9863L482.71 7.18634L481.897 9.01365ZM530.303 29.9V36.7H532.303V29.9H530.303ZM531.711 35.787L482.711 13.887L481.895 15.713L530.895 37.613L531.711 35.787ZM483.303 8.09999V2H481.303V8.09999H483.303ZM482.303 3H531.303V0.999996H482.303V3ZM530.303 2V8.09999H532.303V2H530.303ZM531.303 7.09999H482.303V9.09999H531.303V7.09999ZM545.334 72H544.334V73H545.334V72ZM545.334 2V0.999996H544.334V2H545.334ZM552.334 43.8V42.8L551.907 44.7045L552.334 43.8ZM596.034 64.4H597.034V63.7659L596.46 63.4955L596.034 64.4ZM596.034 72L595.592 72.8973L597.034 73.6065V72H596.034ZM552.334 50.5L552.775 49.6027L551.334 48.8935V50.5H552.334ZM552.334 72V73H553.334V72H552.334ZM552.334 37.7H551.334V38.7H552.334V37.7ZM552.334 8.09999V7.09999H551.334V8.09999H552.334ZM546.334 72V2H544.334V72H546.334ZM545.334 3H577.834V0.999996H545.334V3ZM577.834 3C588.878 3 597.734 11.9492 597.734 22.9H599.734C599.734 10.8508 589.989 0.999996 577.834 0.999996V3ZM597.734 22.9C597.734 33.8508 588.878 42.8 577.834 42.8V44.8C589.989 44.8 599.734 34.9492 599.734 22.9H597.734ZM577.834 42.8H552.334V44.8H577.834V42.8ZM551.907 44.7045L595.607 65.3045L596.46 63.4955L552.76 42.8955L551.907 44.7045ZM595.034 64.4V72H597.034V64.4H595.034ZM596.475 71.1027L552.775 49.6027L551.892 51.3973L595.592 72.8973L596.475 71.1027ZM551.334 50.5V72H553.334V50.5H551.334ZM552.334 71H545.334V73H552.334V71ZM552.334 38.7H577.834V36.7H552.334V38.7ZM577.834 38.7C586.144 38.7 592.734 31.5923 592.734 22.9H590.734C590.734 30.6077 584.923 36.7 577.834 36.7V38.7ZM592.734 22.9C592.734 14.2077 586.144 7.09999 577.834 7.09999V9.09999C584.923 9.09999 590.734 15.1923 590.734 22.9H592.734ZM577.834 7.09999H552.334V9.09999H577.834V7.09999ZM551.334 8.09999V37.7H553.334V8.09999H551.334ZM637.793 72H636.793V73H637.793V72ZM637.793 14.1V13.1H636.793V14.1H637.793ZM644.793 14.1H645.793V13.1H644.793V14.1ZM644.793 44.3H643.793V45.3H644.793V44.3ZM685.193 44.3V45.3H686.193V44.3H685.193ZM685.193 14.1V13.1H684.193V14.1H685.193ZM692.193 14.1H693.193V13.1H692.193V14.1ZM692.193 72V73H693.193V72H692.193ZM685.193 72H684.193V73H685.193V72ZM685.193 50.4H686.193V49.4H685.193V50.4ZM644.793 50.4V49.4H643.793V50.4H644.793ZM644.793 72V73H645.793V72H644.793ZM644.793 14.1H643.793V15.1H644.793V14.1ZM644.793 8.09999V7.09999H643.793V8.09999H644.793ZM651.793 8.09999H652.793V7.09999H651.793V8.09999ZM651.793 14.1V15.1H652.793V14.1H651.793ZM651.793 8.09999H650.793V9.09999H651.793V8.09999ZM651.793 2V0.999996H650.793V2H651.793ZM678.193 2H679.193V0.999996H678.193V2ZM678.193 8.09999V9.09999H679.193V8.09999H678.193ZM678.193 14.1H677.193V15.1H678.193V14.1ZM678.193 8.09999V7.09999H677.193V8.09999H678.193ZM685.193 8.09999H686.193V7.09999H685.193V8.09999ZM685.193 14.1V15.1H686.193V14.1H685.193ZM638.793 72V14.1H636.793V72H638.793ZM637.793 15.1H644.793V13.1H637.793V15.1ZM643.793 14.1V44.3H645.793V14.1H643.793ZM644.793 45.3H685.193V43.3H644.793V45.3ZM686.193 44.3V14.1H684.193V44.3H686.193ZM685.193 15.1H692.193V13.1H685.193V15.1ZM691.193 14.1V72H693.193V14.1H691.193ZM692.193 71H685.193V73H692.193V71ZM686.193 72V50.4H684.193V72H686.193ZM685.193 49.4H644.793V51.4H685.193V49.4ZM643.793 50.4V72H645.793V50.4H643.793ZM644.793 71H637.793V73H644.793V71ZM645.793 14.1V8.09999H643.793V14.1H645.793ZM644.793 9.09999H651.793V7.09999H644.793V9.09999ZM650.793 8.09999V14.1H652.793V8.09999H650.793ZM651.793 13.1H644.793V15.1H651.793V13.1ZM652.793 8.09999V2H650.793V8.09999H652.793ZM651.793 3H678.193V0.999996H651.793V3ZM677.193 2V8.09999H679.193V2H677.193ZM678.193 7.09999H651.793V9.09999H678.193V7.09999ZM679.193 14.1V8.09999H677.193V14.1H679.193ZM678.193 9.09999H685.193V7.09999H678.193V9.09999ZM684.193 8.09999V14.1H686.193V8.09999H684.193ZM685.193 13.1H678.193V15.1H685.193V13.1ZM706.152 72H705.152V73H706.152V72ZM706.152 2V0.999996H705.152V2H706.152ZM713.152 2H714.152V0.999996H713.152V2ZM713.152 72V73H714.152V72H713.152ZM707.152 72V2H705.152V72H707.152ZM706.152 3H713.152V0.999996H706.152V3ZM712.152 2V72H714.152V2H712.152ZM713.152 71H706.152V73H713.152V71Z" fill="white" mask="url(#path-1-outside-1_31_6)"/>
</svg>
