<svg xmlns="http://www.w3.org/2000/svg" viewBox="0 0 512 512">
  <defs>
    <linearGradient id="g" x1="0" y1="0" x2="1" y2="1">
      <stop offset="0" stop-color="#a78bfa"/>
      <stop offset="1" stop-color="#6366f1"/>
    </linearGradient>
  </defs>
  <rect width="512" height="512" rx="96" fill="#0b0b12"/>
  <g transform="translate(256,256)" fill="url(#g)">
    <rect x="-12" y="-160" width="24" height="24" rx="4"/>
    <rect x="-60" y="-148" width="24" height="24" rx="4"/>
    <rect x="36" y="-148" width="24" height="24" rx="4"/>
    <rect x="-96" y="-112" width="24" height="24" rx="4"/>
    <rect x="0" y="-112" width="24" height="24" rx="4"/>
    <rect x="84" y="-112" width="24" height="24" rx="4"/>
    <rect x="-132" y="-72" width="24" height="24" rx="4"/>
    <rect x="-48" y="-72" width="24" height="24" rx="4"/>
    <rect x="36" y="-72" width="24" height="24" rx="4"/>
    <rect x="120" y="-72" width="24" height="24" rx="4"/>
    <rect x="-156" y="-24" width="24" height="24" rx="4"/>
    <rect x="-84" y="-24" width="24" height="24" rx="4"/>
    <rect x="-12" y="-24" width="24" height="24" rx="4"/>
    <rect x="60" y="-24" width="24" height="24" rx="4"/>
    <rect x="132" y="-24" width="24" height="24" rx="4"/>
    <rect x="-132" y="24" width="24" height="24" rx="4"/>
    <rect x="-48" y="24" width="24" height="24" rx="4"/>
    <rect x="36" y="24" width="24" height="24" rx="4"/>
    <rect x="120" y="24" width="24" height="24" rx="4"/>
    <rect x="-96" y="72" width="24" height="24" rx="4"/>
    <rect x="0" y="72" width="24" height="24" rx="4"/>
    <rect x="84" y="72" width="24" height="24" rx="4"/>
    <rect x="-60" y="112" width="24" height="24" rx="4"/>
    <rect x="36" y="112" width="24" height="24" rx="4"/>
    <rect x="-12" y="148" width="24" height="24" rx="4"/>
  </g>
</svg>

